<svg class="tds-icon tds-icon-logo-cybertruck"
     viewBox="0 0 3651 1027"
     xmlns="http://www.w3.org/2000/svg">

  <title id="TDSCybertruckLogo" lang="en">Cybertruck</title>

  <path fill="currentColor"
        d="M3653.9 970.501c.33-1.35.52-2.1.67-2.72l4.93-1.4-6.76-.93c-1.76-3.57-1.76-3.57-6.31-5.23v-7.84c1-1.75 1.58-2.67 2-3.33-2.05-2.56-5.13-3.91-6.47-6.21l2-2.8c-2.36-1.51-1.93-4.67-4.79-5.4h-6.09c-1.3 1.08-2.37 2.24-4.27 1.17-.42-.95-.84-1.9-1.26-2.87h-4.49c-.53-1.39-3.25-1.67-2.79-4l1.79-1.79-1.71-1.64c1.27-1.83 3.58-2.55 5.79-3.4l-2.89-2.38c-2.23-.25-4.59.54-6.74-.58..." />
</svg>
