<svg class="tds-icon tds-icon-logo-cybertruck" viewBox="0 0 3651 1027" xmlns="http://www.w3.org/2000/svg"><title id="TDSCybertruckLogo" lang="en"></title><path fill="currentColor" d="M3653.9 970.501c.33-1.35.52-2.1.67-2.72l4.93-1.4-6.76-.93c-1.76-3.57-1.76-3.57-6.31-5.23v-7.84c1-1.75 1.58-2.67 2-3.33-2.05-2.56-5.13-3.91-6.47-6.21l2-2.8c-2.36-1.51-1.93-4.67-4.79-5.4h-6.09c-1.3 1.08-2.37 2.24-4.27 1.17-.42-.95-.84-1.9-1.26-2.87h-4.49c-.53-1.39-3.25-1.67-2.79-4l1.79-1.79-1.71-1.64c1.27-1.83 3.58-2.55 5.79-3.4l-2.89-2.38c-2.23-.25-4.59.54-6.74-.58a15.4 15.4 0 0 0-.74-3.86 25.5 25.5 0 0 0-2.8-3.83c-3 1.16-4.71-1.44-7.22-1.63l-2.88 1.51-1.32-2.94-3.05-.53c-.2-1.45-.38-2.74-.53-3.8a19.73 19.73 0 0 0-9.35-5.58l-8.22-6.74v-4.3l1.81-1.49c-1.29-.58-1.64-2-3.36-2.18l-1.78 1.47-2.69-2.06c-.8-3.53 2.5-2.5 3.72-3.76l-3.79-1.57c-2-.82-1.79-2.7-2.85-4-.56-.66-1.38-1.66-2.1-1.67-3.12-.07-4.24-2.3-6.31-3.55h-3.84l-2.15-1.6c-1.68-.28-3.48.57-4.66-.63-.22-.89-.41-1.64-.57-2.28l-3.44-1c-.26-1-.45-1.79-.61-2.41l-3.67-.95v-3.6l-11.48-4.54c-1.08-2-2-3.88-3.1-5.7-.35-.51-.83-.911-1.4-1.16-1.3-.62-2.68-1.13-3.9-1.64-.37-1.44.67-2.92-.9-4-4.18-.28-11.17-3-15.12-5.84v-3.29c-1.62-1.34-3.63-2.51-4.81-4.1-1.32-1.77-2.12-3.79-3.94-4.74l-3-.69-.66-2.49-5.34-.78-.63-2.5-3.67-1v-1.79c-1.28-1.78-3.41-2.39-5.57-2.95-.39-1-.79-1.91-1.16-2.81h-1.66l-7.57-5.86c0-2.93-3.56-3.68-5-5.7s-2.78-4.41-4.16-6.64h-4.18c-2.59-2.2-5.13-4.36-7.66-6.49h-2.06l-2.93-4.79c-.38-.63-.73-1.27-1-1.77-2.07 0-3.74.07-5.4 0-.54 0-1-.52-1.58-.8v-3l-7-6.09h-2.11l-1.93-3.23-2.16-.19-6.93-5.71-7.66-3c-.2-.77-.39-1.52-.61-2.36l-4.81-.46-8.49-7-1.09-2.75h-4.5l-1.24-2.86-3.44-1v-1.22l-11.91-9.8h-2.82l-3-2.06c-.37-1.18-.61-1.92-.81-2.55l-3-.53-1.25-2.94h-4c-2.28-1.71-4.16-4-6.73-4.81-3.39-1.06-4.67-4.25-7.53-4.85-3.37-.7-4.51-3-6.89-4.26 0-.55-.07-1.09-.11-1.63-1.56-.78-3-1.94-4.74-2.26a11.04 11.04 0 0 1-4.83-2.4c-1.62-1.21-2.73-2.8-5.48-3.11-1.58-.18-2.75-2.26-4.3-3.28a47 47 0 0 0-4.72-2.43v-3.16c-1-.84-1.89-2.19-2.92-2.28-3.17-.27-4.22-1.77-5.08-4-.75-1.95-4.35-2.57-4-5.23 0-.17-.49-.58-.67-.55-2.53.47-3.54-2.14-6.09-2-.91.06-1.94-1.15-2.31-1.39l-4.43-.34c-.36-1.13-.59-1.87-.83-2.61-1.14-.39-2.3-.75-3.41-1.18-1.4-.54-2.76-1.14-4.11-1.7-.44-1.3.62-2.75-.81-4l-5-.44-7.22-6.25c-3.59-.9-6.83-1.88-8.78-4-.34-1-.57-1.78-.67-2.11-1.6-.63-2.69-1.1-3.8-1.51s-2.5-.58-3.36-1.22a8.8 8.8 0 0 0-3.43-1.22 6.4 6.4 0 0 1-2.82-2.25c-.6-.69.46-2.12-1-2.27l-3.57 1.71-7.94-7h-4.66l-3-2.37v-1.85l-2.56-.78-2.79 2c-1.09-2.89-4.52-3.47-7.23-4.56-2.41-1-4-2.88-6.23-3.46-2.75-.73-4.24-2.32-6.18-3.67h-3.37l-5.65-2.47-9-7.41h-2.09l-1.9-3.28-3.06-.17-2.53-3-4.55-.19-3.78-3.11-2-.07c-1.22-1.73-1.81-3.84-4.22-4.79l-2 1.39-1.56-1.28c-1.61-.87-4 .66-5.3-1.18 0-.55-.07-1.09-.1-1.62-2.11-1.36-5.62-1.19-6-4.42-.19-1.41-1.9-2.54-4.07-3-1.44-.3-2.6-1.48-3.58-2.08-.26-1.07-.44-1.82-.61-2.5-5.64-.46-5.6-4.56-7.87-7.17l2.1-2.1-1.78-1.72v-3.22l1.9-1.68-1.83-1.68 2-1.92v-4.74l1.64-1.34c.16-1.22.33-2.52.49-3.7l3.68-3-1.92-1.73v-4.87l1.9-1.72v-8.16l-1.78-1.78 1.91-1.57v-8.41l4-1.2-2-1.9v-2.92l3.73-5.41-1.64-1.65c3.09-1.74 6.69.38 9.78-1.36-.58-.58-1.14-1.13-1.79-1.79l1.8-1.8c3.06-1 4.92 0 6-1.52l-1.74-1.65 2.81-2.45h5.29l9.66-4.09v-1.72q.99-.921 2.13-1.64c1.3-.68 3-1 4-1.82s4.24.16 4-2.64c-.08-1 1.86-2 2.66-2.81 1.95-.33 3.75.52 5.11-.85v-3.16c1.78-1 1.87-2.71 2.77-4.05l3.26-.88c.07-.86.11-1.39.15-2 1.34-1.14 3.49-.86 5-2.19 1-.91 3.78.47 5.29-1.26 1.31-1.49 4 .41 5.36-1.19s3.68-.6 5.43-1.16a20.4 20.4 0 0 1 6.16-3.66c2.2-.76 3.64-3 5.37-4.54l2.39 1.69 1.87-1.54h5c4.67-2.06 6.27-5.34 10.18-6.64s5.68-4.43 8.86-6.41c1.43.52 2.37 3.12 4.77.88.18-1.24.36-2.54.53-3.77l2.72-2.08c3-.11 5.61-.19 8.23-.33.25 0 .48-.36.73-.57v-1.61a42 42 0 0 0 4.77-2.38 43 43 0 0 0 4.14-3.44h2.21l1.95-3.34h3.92l2.09-1.43 2.15 1.38 2.89-2.57-3.77-1.14c.41-1.33 1.78-2 2.32-2.35 2.74-1.15 3.24.92 4.19 1.11h6.35l2.72-2.34-1.91-1.87c1.64-1 3.37-.41 5-.63 1.83-1 2.57-3.21 5.27-3.28l3.06 1.41 3.54-2.92 4.61-.29.81-2.51c1-1.2 3-1.77 3.34-3.39l-1.33-1.1 2.51-4.16 4.65-.45a6.9 6.9 0 0 1 3.27-4.5l2.91-.49.78-2.46 7.64-2.84-2.06-1.92c3.69-1.63 7.81.1 10.85-.84l3.79-4.79h6.39c1.89-1.56 3.47-3.77 5.74-4.48 2.63-.83 4.28-2.26 6.21-3.7h7.89c1.13-1.55 3.32-1.47 4.89-2.29.05-.16.1-.32.15-.46l4.84-5.6 4.41.2 2 1.63c2.61-.16 5.51-.34 8.4-.55.1 0 .17-.37.23-.5-.56-.58-1.09-1.12-1.59-1.65l8.67-7.14c1.59.41 2.49 3.12 5 .83v-3.44l-2.06-2.25c4.1.27 5.25-2.57 7.48-3.43l4.33-.21.86-3.36 3.47-1.9c.11-1.87.18-2.92.26-4.13l3-.51c.91-1.5 1.89-3.08 2.82-4.69.13-.22 0-.54 0-.81l-2-1.77v-1.83l3.75-1.07c.61-3.37-.1-6.89.61-11.88l3.52-1.38c.11-1.79.19-2.84.25-3.81l4.16-1.24-4.26-1.68 2.25-2.42-2.41-3.54 1.8-2.63c-2.28-1.46-1.87-4.6-4.84-5.4h-9.44l-3.36 1.66c-2.12-.42-2.69-2.38-5.63-1.5-.77.67-1.92 2.51-3.53 2.85s-3.26.86-4 2c-1.11 1.78-3.74.89-4.91 2.3v1.06c-2.09 3.93-6.81 4.52-9.84 6.92-1.45 1.15-3.63 1.67-5.47 2.47l-1.52-1.25c-.92 1.22-1.91 2.37-2.7 3.6-1.05 1.65-3.81.7-4.88 2.31a9.5 9.5 0 0 1-1.51 1.55c-.11 1.42-.19 2.47-.29 3.68-3.66-.24-4.81 2.59-7.32 3.38-.91.365-1.91.432-2.86.193a4.67 4.67 0 0 1-2.42-1.523l-5.53 2.58-6.3 5.19-2.81.61c-.41 1-.83 1.9-1.24 2.86h-6c-3 2-5.35 4.62-8.4 6.51-.68-.57-1.15-.95-1.63-1.34-3 .64-2.47 3.39-4.26 4.76h-2.33c-1.27 1.55-2.6….32-.64s-.65.47-.98.69m42.65-90.51c.16.1.75-.23 1.3-.41l-2.41-1.25-.49.23a12 12 0 0 0 1.6 1.46zm-19 38.63 1 .44.78-1.55-.76-.33zm-33.78-7.23c-1.31-.14-1.69.21-.49.88.38.21 1.22-.13 1.85-.22l-.13-.42c-.43-.05-.84-.13-1.25-.21zm54.21-33.77a.53.53 0 0 0-.1.32c0 .115.03.226.1.32.56.34 1.18.6 1.78.89l.38-.38q-.66-.663-1.41-1.24a1 1 0 0 0-.77.12zm-32.67 59.41c0 .34.46.65 1 1.24.36-.51.72-.8.65-1-.11-.35-.48-.63-.75-.94-.37.27-.98.52-.92.73zm31.92-26.05.94 1.77c.53-.78.78-1.17 1.11-1.66l-1.62-.42zm7.17-31.81a4.1 4.1 0 0 0-1.12-.92c-.05 0-.69.4-.65.48.29.478.62.927 1 1.34.38-.46.82-.81.75-.9zm-3.4 4.75c-1.11 1.8-1 2.07.47 2.19-.16-.68-.3-1.32-.49-2.19zm-7-3.21c-.07.15.44.46.84.85.4-.37.9-.65.85-.82s-.52-.52-.81-.77c-.34.24-.78.44-.91.74zm-8.66 22.84c-.06.15.44.47.68.71.31-.23.61-.46 1.06-.78l-.85-.84c-.35.3-.77.56-.92.91zm-18.11 18.36c.47-.201.92-.456 1.34-.76.09-.09-.34-.56-.53-.86l-1.31 1.21zm-47.28-14.61 1.57.69.47-.63a6.7 6.7 0 0 0-1.34-.63c-.17-.04-.49.37-.73.57zm72 3.42c.29.325.63.608 1 .84.13.06.57-.33 1.06-.64-.52-.36-.82-.73-1.18-.76s-.6.34-.89.56zm-64.81-8.89c-.27.27-.7.51-.77.81s.23.63.36 1l.67-.32c.23-.24.69-.56.62-.72s-.58-.53-.89-.77zm912.75-11.84c-.24-.182-.5-.342-.77-.48-.87-.212-1.76-.316-2.66-.31-1.07-.18-1.51-.12-2 .37a2.6 2.6 0 0 0-.56-.23c-.51-.1-1.34-.35-1.51-.24-.38.24-.43.65-.61 1 .56.07 1.12.18 1.68.2.41 0 .82-.16 1.23-.17.64-.09 1.29-.056 1.91.1a2.68 2.68 0 0 0 2.41.21q.465-.164.87-.45zm-6.43-13.2c-.35.061-.69.179-1 .35a.5.5 0 0 0-.11.31.5.5 0 0 0 .11.31c.58.85 1.23 1.68 1.9 2.58 1.68-.48 1.83-1.11.57-1.67-.76-.34-1.65-.63-1.11-1.36.14-.12-.22-.34-.37-.52zm10.71 16.26q-1.155.401-2.19 1.06a.54.54 0 0 0-.15.38c0 .141.05.277.15.38.13.18.62.28 1 .43.38-.17.69-.28.94-.42.48-.232.94-.521 1.35-.86.26-.24.27-.58.39-.87a5 5 0 0 0-1.5-.1zm-27.53-29.55c-.23.1-.2.65.05.86.5.356 1.05.633 1.63.82.41.144.84.199 1.27.16.27 0 .43-.36.49-.42-.02-.92-2.5-1.85-3.44-1.42m7.14 1.22c3.83-1.32 3.84-1.79.17-3.25.16.36.14.67.33.72 1.24.34.74.71.26 1.19-.32.397-.57.838-.76 1.31zm19.45 14.78c.04-.332.04-.668 0-1a2.3 2.3 0 0 0-.48-.66l-.64-.77q-.765.291-1.5.66c-.16.08-.11.29-.22.42q-.315.355-.66.67l1.75-.17zm-12.06 7.06c-.4.062-.76.278-1 .6-.08.16.37.49.71.62.77.31 1.62.54 2.44.8l.45-.25a9 9 0 0 0-1.19-1.56 2.36 2.36 0 0 0-1.45-.18zm2.17-2.06a7 7 0 0 0 2.18-.85c-.84-.44-1.47-.92-1.69-.86-.73.236-1.44.541-2.11.91.51.31 1.03.8 1.58.8zm-22.14-26.27 2.15.85c.41-.44.92-.74.84-1-.13-.174-.29-.32-.47-.43-.19-.11-.4-.181-.61-.21-.67.21-1.33.485-1.95.82zm23.69 38.86a5.4 5.4 0 0 0-2.15-.09c-1.3.24-.63.74-.11 1.4.65-.64 2.66-.2 2.22-1.28zm-8.79.15c.61.424 1.24.811 1.9 1.16a2.3 2.3 0 0 0 1-.24 1.67 1.67 0 0 0-.59-.93 1.82 1.82 0 0 0-2.35.04zm14.09-4.74c-.02-.366-.1-.727-.23-1.07-.14-.23-.52-.4-.8-.6-.35.19-.92.34-1 .57-.43 1.02.93.94 1.99 1.1zm-4.65-11.94-.51.22c.27.41.37 1 .88 1.18s1.28-.25 2-.41l-.08-.27zm-6.76 12.52 2.72-.8-2.22-1.1zm-21 29.89c.51.24 1 .51 1.56.71.09 0 .77-.32.73-.4a8 8 0 0 0-1.08-1.11zm2.1-12.31a1.46 1.46 0 0 0-1.1.61c-.07.21.51.49 1.05.93.56-.44 1.15-.7 1.1-.91-.12-.18-.29-.329-.48-.433a1.36 1.36 0 0 0-.62-.167zm19.59-43.73c.39.232.8.41 1.24.53.4-.042.79-.157 1.15-.34v-.33a5.8 5.8 0 0 0-1.45-.39c-.34.03-.67.37-.99.56zm17.61 33.17c.38.232.8.397 1.24.49.34 0 .73-.31 1.43-.63a7.4 7.4 0 0 0-1.74-.46c-.4.06-.68.42-.98.63zm-20.85 1.4c.29.17.65.52.85.5.64-.163 1.26-.373 1.87-.63-.76-.25-1.21-.52-1.48-.47a4.7 4.7 0 0 0-1.24.6m-2.49 16.43.84.29 1.27-1-1.35-.47zm-18.44-2.39c.19.202.39.389.61.56.65-.18 1.25-.41 1.87-.63l-.5-.52zm19.84-8.43q.075-.774 0-1.55h-.7c-.14.65-.29 1.29-.44 1.94l.38.12c.28-.12.72-.32.75-.5zm-31.6 24.75c.32.239.68.409 1.07.5.36 0 .75-.27 1.41-.55a5.4 5.4 0 0 0-1.5-.5c-.37.04-.66.37-.99.56zm34.69-63.44-.25-.2-2.26.15-.28.21c.38.19.89.58 1.12.53.58-.17 1.14-.401 1.67-.69m-15.11 43.52.5.26c.39.043.78-.068 1.09-.308.31-.241.52-.593.57-.982l-.36-.17zm16.88-13c0 .18.48.38.74.57l1-.78-1.1-.51c-.2.28-.61.53-.63.77zm-26-42.06.83.09c.15-.42.31-.84.47-1.27-.33 0-.94-.08-.94-.06q-.24.632-.39 1.29zm17.71 6.59 1.86-.55-.73-.61-1.57.78zm-25.68 88.18c.26 0 .64-.29 1.2-.55a4.2 4.2 0 0 0-1.32-.46c-.36.095-.7.262-1 .49.33.252.7.445 1.09.57zm42.85-65.43-2.41-.89-.49.16c.5.378 1.04.713 1.6 1 .13.15.72-.09 1.27-.22zm-20.32 27.87 1 .32.78-1.11-.76-.23zm20.43-29.27a.4.4 0 0 0-.08.104.5.5 0 0 0-.02.126c0 .044.01.086.02.126.02.04.05.075.08.104.56.24 1.18.43 1.78.63l.38-.26q-.675-.482-1.41-.89a1.35 1.35 0 0 0-.78.11zm-31.82 41.92c-.3.17-.87.35-.85.5s.46.46 1 .88c.36-.37.72-.57.65-.71s-.56-.4-.83-.62zm31.06-18.07.94 1.26 1.11-1.19-1.62-.29zm7.17-22.71c-.34-.277-.71-.5-1.12-.66-.05 0-.69.29-.65.35.3.367.63.702 1 1 .38-.38.82-.63.75-.69zm-3.4 3.39c-1.11 1.29-1 1.48.47 1.57-.16-.49-.3-.95-.49-1.57zm-7-2.29c-.07.1.44.33.84.6.4-.26.9-.46.85-.58s-.52-.37-.81-.55c-.34.17-.78.32-.91.53zm-8.66 16.3c-.06.11.44.34.68.51l1.06-.56-.85-.6c-.34.165-.65.385-.92.65zm-16.77 12.57c.09-.06-.34-.4-.53-.61l-1.28.82.47.33c.45-.138.89-.319 1.31-.54zm23.4-7.45c.31.241.64.442 1 .6.13 0 .57-.23 1.06-.46a4.1 4.1 0 0 0-1.18-.54c-.27-.02-.62.26-.91.42z"></path></svg>